<?xml version="1.0" encoding="UTF-8"?>
<svg id="Capa_2" data-name="Capa 2" xmlns="http://www.w3.org/2000/svg" viewBox="0 0 143.39 309.38">
  <defs>
    <style>
      .cls-1 {
        fill: #00aec3;
      }

      .cls-2 {
        fill: #838383;
      }
    </style>
  </defs>
  <g id="Capa_1-2" data-name="Capa 1">
    <g>
      <g>
        <path class="cls-2" d="m11.67,216.92v5.79c-1,.17-2.02.27-3.03.28-1.87.14-3.73-.41-5.23-1.53-1.24-1.22-1.87-2.93-1.73-4.66-.13-1.75.51-3.47,1.76-4.7,1.45-1.17,3.29-1.75,5.15-1.63.92,0,1.84.1,2.74.31v2.25c-.82-.19-1.67-.29-2.51-.29-.84-.03-1.68.11-2.46.41-.61.26-1.12.73-1.42,1.32-.34.74-.49,1.55-.46,2.36-.1,1.09.25,2.17.96,3,.83.69,1.9,1.03,2.98.95h.82v-3.85h2.43Z"/>
        <path class="cls-2" d="m16.09,222.3c-.85-.47-1.54-1.19-1.96-2.07-.5-1.09-.74-2.28-.7-3.47-.04-1.2.2-2.39.7-3.47.43-.89,1.12-1.62,1.99-2.09,1.94-.91,4.18-.91,6.11,0,.86.48,1.55,1.21,1.99,2.09.49,1.09.72,2.28.68,3.47.04,1.19-.2,2.38-.7,3.46-.42.89-1.12,1.62-1.99,2.09-.94.48-1.99.72-3.05.7-1.06.03-2.11-.21-3.05-.7m5.28-2.43c.58-.91.84-1.99.75-3.06.1-1.1-.17-2.21-.77-3.15-1.13-1.22-3.04-1.3-4.26-.17-.06.06-.12.11-.17.17-.58.9-.85,1.98-.77,3.05-.1,1.11.17,2.22.77,3.16.54.67,1.36,1.03,2.22.98.85.05,1.68-.31,2.23-.96"/>
        <path class="cls-2" d="m35.49,217.59c.43.55.64,1.23.6,1.92.03.7-.19,1.38-.6,1.94-.49.6-1.16,1.02-1.91,1.21-1.14.3-2.31.43-3.49.41-.52,0-1.09,0-1.71-.08s-1.21-.1-1.73-.16v-11.88c.59-.13,1.22-.23,1.91-.31s1.35-.11,2.01-.11c1.37-.1,2.74.19,3.95.85.84.57,1.31,1.54,1.24,2.54,0,.58-.17,1.15-.51,1.63-.35.48-.86.83-1.43.98.63.12,1.21.46,1.63.95m-6.21-4.89v3h1.73c.6.05,1.19-.08,1.71-.37.36-.29.55-.73.52-1.19.02-.32-.06-.64-.23-.91-.19-.24-.45-.42-.75-.51-.44-.13-.9-.18-1.35-.16-.55,0-1.09.05-1.63.15m3.26,8.15c.34-.08.65-.27.86-.55.19-.28.29-.62.28-.96.04-.49-.17-.98-.55-1.29-.54-.32-1.17-.46-1.79-.41h-1.99v3.26c.5.03,1.01.03,1.52,0,.55.02,1.1-.04,1.63-.18"/>
        <rect class="cls-2" x="37.63" y="210.66" width="2.67" height="12.16"/>
        <polygon class="cls-2" points="45.14 220.71 51.13 220.71 51.13 222.84 42.49 222.84 42.49 210.66 51.04 210.66 51.04 212.82 45.14 212.82 45.14 215.56 50.21 215.56 50.21 217.69 45.14 217.69 45.14 220.71"/>
        <path class="cls-2" d="m59.98,222.84l-3.11-4.47h-1.42v4.5h-2.64v-11.9c.59-.13,1.21-.23,1.86-.31s1.3-.11,1.96-.11c1.38-.1,2.76.24,3.95.96.91.7,1.4,1.81,1.32,2.95.02.77-.19,1.54-.62,2.18-.46.62-1.1,1.09-1.83,1.34l3.46,4.89-2.92-.03Zm-4.53-6.52c.44.02.88.02,1.32,0,.69.05,1.38-.11,1.97-.46.45-.36.68-.93.64-1.5.04-.56-.18-1.1-.6-1.47-.56-.36-1.23-.52-1.89-.47-.48,0-.96.05-1.43.13v3.77Z"/>
        <polygon class="cls-2" points="72.12 210.66 74.65 210.66 74.65 222.84 71.95 222.84 66.66 214.69 66.66 222.84 64.14 222.84 64.14 210.66 66.84 210.66 72.12 218.82 72.12 210.66"/>
        <path class="cls-2" d="m79.12,222.3c-.87-.46-1.56-1.19-1.99-2.07-.5-1.09-.74-2.28-.7-3.47-.04-1.2.2-2.39.7-3.47.43-.89,1.12-1.62,1.99-2.09,1.94-.91,4.18-.91,6.11,0,.86.48,1.55,1.21,1.99,2.09.49,1.09.72,2.28.68,3.47.04,1.19-.2,2.38-.7,3.46-.42.89-1.12,1.62-1.99,2.09-.94.48-1.99.72-3.05.7-1.06.03-2.11-.21-3.05-.7m5.28-2.43c.58-.91.84-1.99.75-3.06.1-1.1-.17-2.21-.77-3.15-1.13-1.22-3.04-1.3-4.26-.17-.06.06-.12.11-.17.17-.59.9-.86,1.98-.77,3.05-.1,1.11.17,2.22.77,3.16.54.67,1.36,1.03,2.22.98.85.05,1.68-.31,2.23-.96"/>
        <path class="cls-2" d="m93.82,222.76v-11.82c.62-.14,1.24-.24,1.87-.29.68,0,1.35-.11,1.99-.11,1.81-.13,3.6.41,5.02,1.53,1.2,1.26,1.79,2.97,1.63,4.7.05,1.23-.22,2.45-.8,3.54-.54.93-1.39,1.65-2.4,2.02-1.29.47-2.67.69-4.04.65-1.09,0-2.18-.08-3.26-.21m6.16-2.38c.55-.27.99-.72,1.24-1.29.54-1.51.54-3.17,0-4.68-.26-.57-.7-1.03-1.26-1.3-.66-.3-1.38-.44-2.1-.41-.46,0-.92.05-1.37.13v7.89c.45.03.9.03,1.35,0,.73.03,1.46-.11,2.14-.41"/>
        <polygon class="cls-2" points="108.81 220.71 114.81 220.71 114.81 222.84 106.17 222.84 106.17 210.66 114.72 210.66 114.72 212.82 108.81 212.82 108.81 215.56 113.89 215.56 113.89 217.69 108.81 217.69 108.81 220.71"/>
        <polygon class="cls-2" points="120.63 222.84 120.63 210.66 123.3 210.66 123.3 220.61 128.89 220.61 128.89 222.84 120.63 222.84"/>
        <path class="cls-2" d="m138.23,222.84l-1.01-3.26h-4.52l-.99,3.26h-2.62l3.93-12.18h3.91l3.95,12.18h-2.64Zm-4.89-5.38h3.26l-1.63-5.18-1.63,5.18Z"/>
        <path class="cls-2" d="m2.09,229.8c1.21-.24,2.45-.37,3.68-.37,1.45-.11,2.89.27,4.09,1.08.94.81,1.44,2.02,1.35,3.26.08,1.23-.42,2.44-1.34,3.26-1.15.82-2.54,1.21-3.95,1.11h-1.17v3.55h-2.67v-11.88Zm5.89,5.85c.47-.48.7-1.14.64-1.81.06-.67-.17-1.34-.64-1.83-.56-.43-1.26-.64-1.96-.57-.42,0-.84.03-1.26.1v4.6c.4.02.8.02,1.21,0,.72.06,1.43-.14,2.01-.57"/>
        <path class="cls-2" d="m20.09,241.75l-3.1-4.47h-1.43v4.5h-2.62v-11.9c.61-.14,1.23-.24,1.86-.29.64-.08,1.29-.13,1.94-.13,1.39-.1,2.77.24,3.96.96.9.71,1.39,1.81,1.3,2.95.03.78-.19,1.54-.62,2.18-.45.62-1.08,1.09-1.81,1.34l3.44,4.89-2.92-.03Zm-4.53-6.52c.45.02.89.02,1.34,0,.68.06,1.37-.1,1.96-.46.46-.35.7-.91.64-1.48.05-.56-.17-1.12-.6-1.48-.56-.35-1.22-.52-1.87-.47-.49,0-.97.05-1.45.13v3.77Z"/>
        <path class="cls-2" d="m25.95,241.22c-.88-.46-1.59-1.18-2.04-2.07-.5-1.09-.74-2.28-.7-3.47-.03-1.17.21-2.34.7-3.41.43-.89,1.13-1.61,1.99-2.09,1.94-.91,4.18-.91,6.11,0,.88.46,1.59,1.19,2.04,2.09.93,2.22.93,4.71,0,6.93-.44.86-1.14,1.57-1.99,2.02-1.93.94-4.18.94-6.11,0m5.28-2.43c.59-.91.86-1.99.77-3.06.09-1.1-.18-2.21-.77-3.15-1.14-1.23-3.06-1.3-4.29-.17-.06.05-.11.11-.17.17-.58.9-.85,1.98-.77,3.05-.09,1.11.18,2.22.77,3.16,1.14,1.23,3.06,1.3,4.29.17.06-.05.11-.11.17-.17"/>
        <polygon class="cls-2" points="44.26 229.59 46.87 229.59 42.97 241.75 39 241.75 35.1 229.59 37.9 229.59 41.07 239.73 44.26 229.59"/>
        <rect class="cls-2" x="47.98" y="229.59" width="2.67" height="12.16"/>
        <polygon class="cls-2" points="60.83 229.59 63.35 229.59 63.35 241.75 60.65 241.75 55.37 233.6 55.37 241.75 52.84 241.75 52.84 229.59 55.54 229.59 60.83 237.73 60.83 229.59"/>
        <path class="cls-2" d="m66.74,240.42c-1.18-1.27-1.77-2.98-1.63-4.71-.14-1.72.45-3.42,1.63-4.68,1.35-1.17,3.11-1.76,4.89-1.63.88,0,1.75.09,2.61.29v2.2c-.78-.19-1.59-.28-2.4-.28-.75-.03-1.5.11-2.18.41-.56.27-1.02.72-1.29,1.29-.31.73-.45,1.52-.42,2.32-.03.81.12,1.62.42,2.36.25.56.7,1.01,1.26,1.27.67.3,1.39.44,2.12.41.85,0,1.69-.14,2.49-.39v2.22c-.43.12-.86.22-1.3.28-.47.08-.95.12-1.43.11-1.72.12-3.42-.42-4.74-1.52"/>
        <rect class="cls-2" x="75.71" y="229.59" width="2.67" height="12.16"/>
        <path class="cls-2" d="m88.74,241.75l-.99-3.26h-4.52l-1.01,3.26h-2.61l3.93-12.16h3.96l3.93,12.16h-2.69Zm-4.89-5.38h3.26l-1.63-5.18-1.63,5.18Z"/>
        <path class="cls-2" d="m96.73,241.67v-11.82c.62-.14,1.24-.24,1.87-.29.68,0,1.35-.11,1.99-.11,1.81-.13,3.6.41,5.02,1.53,1.2,1.26,1.79,2.97,1.63,4.7.05,1.23-.22,2.45-.8,3.54-.54.93-1.38,1.64-2.38,2.02-1.3.47-2.68.69-4.06.65-1.09,0-2.18-.07-3.26-.21m6.16-2.38c.55-.27.99-.72,1.24-1.29.54-1.51.54-3.17,0-4.68-.26-.57-.7-1.03-1.26-1.3-.66-.29-1.38-.43-2.1-.41-.45,0-.91.05-1.35.13v7.89c.45.03.89.03,1.34,0,.73.03,1.46-.11,2.14-.41"/>
        <polygon class="cls-2" points="111.72 239.62 117.71 239.62 117.71 241.75 109.07 241.75 109.07 229.58 117.63 229.58 117.63 231.73 111.72 231.73 111.72 234.47 116.8 234.47 116.8 236.6 111.72 236.6 111.72 239.62"/>
        <path class="cls-1" d="m20.66,264.14c.89,1.14,1.33,2.57,1.26,4.01.05,1.47-.38,2.91-1.24,4.11-1.06,1.23-2.47,2.1-4.04,2.49-2.39.64-4.85.93-7.32.86-1.09,0-2.28,0-3.6-.15s-2.53-.21-3.6-.36v-24.8c1.31-.28,2.64-.49,3.98-.64,1.4-.16,2.81-.24,4.22-.24,2.87-.21,5.74.4,8.28,1.76,1.77,1.19,2.76,3.24,2.62,5.36.03,1.26-.35,2.49-1.08,3.52-.74,1-1.8,1.72-3,2.04,1.37.25,2.61.96,3.52,2.02m-13.04-10.3v6.31h3.62c1.25.11,2.51-.17,3.6-.8.75-.6,1.16-1.53,1.09-2.49.03-.67-.14-1.33-.49-1.91-.4-.54-.98-.92-1.63-1.08-.93-.26-1.89-.37-2.85-.34-1.14,0-2.28.11-3.41.31m6.68,17.28c.73-.17,1.38-.58,1.84-1.17.39-.6.59-1.31.55-2.02.1-1.04-.33-2.05-1.14-2.71-1.14-.66-2.45-.96-3.77-.85h-4.11v7.03c1.08.11,2.17.16,3.26.15,1.18.04,2.36-.09,3.51-.39"/>
        <path class="cls-1" d="m27.62,273.02c-1.92-2.3-2.87-5.26-2.62-8.25v-15.03h5.66v15.52c-.14,1.57.31,3.13,1.26,4.39,2.26,1.85,5.51,1.85,7.78,0,.95-1.25,1.4-2.82,1.26-4.39v-15.52h5.56v14.97c.27,3.01-.66,5.99-2.59,8.31-1.73,1.79-4.45,2.69-8.15,2.69s-6.42-.9-8.15-2.69"/>
        <polygon class="cls-1" points="56.52 270.82 69.12 270.82 69.12 275.32 50.96 275.32 50.96 249.74 68.95 249.74 68.95 254.24 56.52 254.24 56.52 260 67.18 260 67.18 264.48 56.52 264.48 56.52 270.82"/>
        <polygon class="cls-1" points="89.42 249.74 94.74 249.74 94.74 275.32 89.06 275.32 77.96 258.19 77.96 275.32 72.65 275.32 72.65 249.74 78.32 249.74 89.42 266.86 89.42 249.74"/>
        <path class="cls-1" d="m104.13,274.2c-1.83-.99-3.3-2.55-4.19-4.43-1.05-2.29-1.55-4.79-1.47-7.3-.08-2.51.42-5,1.47-7.29.91-1.86,2.37-3.4,4.19-4.39,1.99-1,4.2-1.49,6.42-1.43,2.22-.05,4.42.44,6.41,1.45,1.82.98,3.28,2.52,4.17,4.39,1.05,2.28,1.55,4.77,1.47,7.27.08,2.51-.42,5-1.47,7.29-.9,1.87-2.36,3.4-4.19,4.39-4.05,1.94-8.76,1.94-12.81,0m11.09-5.12c1.23-1.91,1.8-4.16,1.63-6.42.19-2.33-.39-4.66-1.63-6.64-1.13-1.39-2.86-2.16-4.65-2.05-1.79-.11-3.53.64-4.68,2.02-1.24,1.9-1.81,4.16-1.63,6.42-.18,2.33.39,4.65,1.63,6.64,2.4,2.58,6.45,2.73,9.03.33.11-.1.22-.21.33-.33"/>
        <path class="cls-1" d="m129.02,275.36c-1.16-.17-2.31-.43-3.42-.8v-4.56c1.15.37,2.34.65,3.54.83,1.19.19,2.4.29,3.6.29,1.24.09,2.48-.17,3.57-.75.73-.49,1.15-1.34,1.11-2.22.02-.47-.1-.94-.34-1.35-.28-.42-.67-.75-1.12-.96-.72-.33-1.47-.59-2.23-.78l-1.92-.49c-1.94-.36-3.74-1.29-5.17-2.66-1.15-1.29-1.73-2.99-1.63-4.71-.11-2.24.9-4.39,2.69-5.74,2.37-1.52,5.16-2.24,7.97-2.04,1.09,0,2.18.06,3.26.2.96.11,1.91.3,2.84.55v4.56c-.9-.26-1.81-.46-2.74-.59-1-.13-2.01-.19-3.02-.2-1.42-.11-2.84.16-4.12.77-.78.44-1.26,1.28-1.24,2.18-.02.45.08.89.29,1.29.24.39.58.71.99.91.63.3,1.28.54,1.96.72l1.94.49c2.04.39,3.93,1.33,5.48,2.72,1.2,1.28,1.82,2.99,1.74,4.74.04,1.49-.39,2.96-1.22,4.21-.89,1.23-2.13,2.16-3.55,2.67-1.76.67-3.63.99-5.51.95-1.25,0-2.5-.1-3.73-.29"/>
        <path class="cls-1" d="m19.22,309.05l-2.1-6.81H7.61l-2.1,6.81H0l8.27-25.56h8.15l8.25,25.56h-5.45Zm-10.22-11.3h6.77l-3.37-10.91-3.39,10.91Z"/>
        <rect class="cls-1" x="27.31" y="283.49" width="5.62" height="25.58"/>
        <path class="cls-1" d="m52.61,309.05l-6.52-9.37h-.31c-.8,0-1.63,0-2.67-.1v9.47h-5.54v-24.99c1.29-.29,2.59-.51,3.9-.65,1.36-.16,2.72-.23,4.09-.23,2.91-.21,5.82.5,8.31,2.01,1.91,1.47,2.95,3.8,2.77,6.2.06,1.63-.41,3.24-1.32,4.6-.96,1.3-2.29,2.27-3.81,2.8l7.25,10.27h-6.15Zm-9.52-13.71c.92.1,1.85.14,2.77.15,1.45.1,2.89-.23,4.14-.96,1.72-1.71,1.73-4.48.03-6.2,0,0-.02-.02-.03-.03-1.17-.75-2.56-1.09-3.95-.98-1.01,0-2.02.08-3.02.26l.05,7.76Z"/>
        <polygon class="cls-1" points="66.91 304.57 79.51 304.57 79.51 309.05 61.35 309.05 61.35 283.49 79.35 283.49 79.35 287.97 66.91 287.97 66.91 293.73 77.57 293.73 77.57 298.23 66.91 298.23 66.91 304.57"/>
        <path class="cls-1" d="m85.72,309.1c-1.16-.17-2.31-.44-3.42-.8v-4.56c1.15.36,2.33.64,3.52.82,1.19.2,2.4.3,3.6.31,1.24.09,2.48-.17,3.59-.75.73-.5,1.15-1.35,1.11-2.23.02-.47-.1-.94-.34-1.35-.28-.41-.67-.74-1.12-.95-.71-.34-1.46-.6-2.23-.78l-1.92-.51c-1.92-.38-3.7-1.3-5.12-2.66-1.14-1.3-1.72-2.99-1.63-4.71-.11-2.24.9-4.39,2.69-5.74,2.36-1.52,5.15-2.23,7.96-2.04,1.09,0,2.18.07,3.26.21.96.11,1.9.29,2.84.54v4.58c-.89-.27-1.81-.47-2.74-.59-1-.14-2.01-.21-3.02-.21-1.42-.1-2.84.16-4.12.77-.79.44-1.26,1.28-1.24,2.18-.02.45.08.9.29,1.3.24.39.58.7.99.9.63.31,1.28.56,1.96.73l1.94.47c2.05.39,3.95,1.34,5.49,2.74,1.19,1.28,1.82,2.98,1.74,4.73.04,1.5-.39,2.97-1.22,4.22-.89,1.23-2.12,2.18-3.54,2.72-1.77.66-3.64.98-5.53.93-1.24,0-2.49-.09-3.72-.28"/>
      </g>
      <rect class="cls-1" x="36.12" y="30.66" width="1.68" height="6.72"/>
      <rect class="cls-1" x="40.31" y="30.68" width="1.68" height="6.72"/>
      <path class="cls-1" d="m40.78,27.53h-7.52c-.5,0-.91.41-.91.91v1.3h-3.7c-1.3,0-2.36,1.06-2.38,2.36l-.34,4.06-.86.86c-.43.49-.66,1.11-.65,1.76v4.43c0,.5.42.9.91.9h.78c.5,1.64,2.25,2.57,3.89,2.06,1.64-.5,2.57-2.25,2.06-3.89-.5-1.64-2.25-2.57-3.89-2.06-.81.25-1.49.82-1.87,1.58v-1.37h.37c.5,0,.91-.41.91-.91s-.41-.91-.91-.91h-.36c.01-.1.05-.2.1-.29l.83-.85h5.17v5.75c0,.5.42.9.91.9h1.11c.91-.64,1.85-1.23,2.82-1.78h-3v-1.91h7.27c2.21-.82,4.49-1.43,6.81-1.83h-14.09v-9.31h9.49c-1.01-.57-1.99-1.19-2.97-1.78Zm-11.72,14.38c.73,0,1.33.57,1.34,1.3,0,.73-.57,1.33-1.3,1.34-.73,0-1.33-.57-1.34-1.3,0,0,0-.01,0-.02,0-.71.56-1.3,1.27-1.32h.03Zm3.26-6.24h-4.58l.28-3.46h0c0-.32.25-.59.57-.6h3.7l.03,4.06Z"/>
      <path class="cls-1" d="m45.67,30.68h-1.09v6.78h1.63v-6.37l-.54-.41Z"/>
      <path class="cls-1" d="m48.74,32.96v4.5h1.63v-3.26l-1.63-1.24Z"/>
      <path class="cls-1" d="m3.79,58.96v-7.52l4.52,4.47,1.81-.75v-21.49l4.66-2.51c-.53,1.03-.93,2.13-1.17,3.26-.75,3.84-.06,7.82,1.94,11.18h0c.08,1.36.62,2.66,1.53,3.67l.64.7c.28.32.77.34,1.08.06.02-.02.04-.04.06-.06l.6-.54,1.06,1.17c.27.31.75.34,1.06.07.02-.02.05-.04.07-.07.67-.6,1.7-.55,2.3.11s.55,1.7-.11,2.3c-.67.6-1.7.55-2.3-.11-.01-.01-.02-.02-.03-.04-.27-.31-.75-.34-1.06-.07-.02.02-.05.04-.07.07-.31.29-.33.77-.04,1.08.01.01.03.03.04.04,1.16,1.38,3.21,1.56,4.59.4s1.56-3.21.4-4.59c-.99-1.18-2.67-1.51-4.03-.78l-.6-.67.6-.54c.32-.28.34-.77.06-1.08-.02-.02-.04-.04-.06-.06l-.64-.7c-.79-.89-1.83-1.52-2.98-1.81h0c-3.45-5.58-1.82-12.9,3.67-16.5l2.66-1.43-.51-1.99-13.42.16v-3.26l-1.06-1.06H2.73l-1.08,1.06v39.13l1.29-.95.85-.37Zm15.8-11.97l.11.11-1.21,1.09-.11-.13c-.65-.67-1.07-1.53-1.19-2.46.93.19,1.77.68,2.4,1.39Zm-.91-20.64c-.31.26-.59.52-.86.8l-2.58,1.39-2.92-2.12,6.36-.07Zm-8.51,1.12l2.9,2.17-3,1.63.1-3.8Zm-2.17,25.14l-3.73-3.75,3.73-3.57v7.32Zm0-11.84l-3.54-2.64,3.54-2.87v5.51Zm0-15.39v5.43l-3.67-3,3.67-3.62v1.19Zm-4.21-3.13h3.16l-3.16,3.1v-3.1Zm0,7.86l3.59,2.92-3.59,2.92v-5.84Zm0,10.16l3.64,2.71-3.64,3.46v-6.16Z"/>
      <path class="cls-1" d="m17.06,86.7c2.76-.01,5.1-2.06,5.48-4.79h0c.19-1.45-.2-2.92-1.09-4.09-1.86-2.42-5.33-2.87-7.75-1,0,0,0,0,0,0-2.39,1.89-2.79,5.35-.91,7.74.88,1.11,2.16,1.85,3.57,2.04l.72.1Zm-1.63-4.24c-.71-.92-.54-2.24.37-2.95.36-.28.8-.43,1.26-.44h.28c.55.08,1.05.37,1.39.82.71.91.55,2.22-.36,2.93,0,0-.02.01-.03.02-.46.36-1.05.51-1.63.41h0c-.52-.08-.99-.36-1.3-.78h.03Z"/>
      <path class="cls-1" d="m142.82,84.33l-.46.52c-.46.52-1.5,1.52-2.05,2.02l-.28.26c-.58.47-1.24.81-1.96,1.03-1.8.62-3.11,2.17-3.44,4.04-.27-.88-.38-1.8-.33-2.72.33-1.77,1.06-3.44,2.12-4.89.24-.39.49-.78.72-1.17.2-.32.2-.74,0-1.06-.2-.32-.57-.49-.95-.44-2.15.29-4.21,1.06-6.02,2.25.47-1.19,1.18-2.26,2.09-3.16.13-.13.26-.28.37-.42.31-.37.31-.9,0-1.27-.3-.38-.83-.48-1.26-.26-1.39.73-2.71,1.4-4.06,2.05-1.35.65-2.32.99-3.44,1.42-.87.34-1.71.77-2.49,1.29.19-.43.43-.83.72-1.19.58-.71,1.21-1.36,1.91-1.96.33-.31.67-.62,1.01-.96,1.36-1.34,2.55-2.84,3.55-4.47.12-.28.12-.59,0-.86-.11-.28-.33-.5-.62-.6-1.05-.35-2.16-.49-3.26-.41-.49.05-.95.24-1.32.55h-.1v-.2c.21-.66.63-1.23,1.19-1.63l.18-.18c.28-.32.34-.77.18-1.16-.18-.39-.55-.65-.98-.67-.12-.02-.24-.02-.36,0-.79.2-1.62.2-2.41,0-1.65-.34-3.35-.38-5.02-.11l.36.1c1.17-1,2.57-1.68,4.08-1.99,1.01-.32,1.98-.75,2.9-1.27l.91-.47c.48-.18.81-.63.83-1.14-.01-.53-.34-1-.83-1.19-.86-.41-1.82-.56-2.77-.44.49-.27.9-.66,1.21-1.12.29-.42.85-.62,1.63-.88h.11c.37-.13.63-.45.68-.83.05-.38-.12-.75-.44-.96l-.46-.29c-.29-.2-.57-.36-.83-.55-1.11-.73-2.01-1.75-2.59-2.95-.35-.83-1-1.5-1.83-1.87-.58-.28-1.2-.51-1.83-.67,1.27-.26,2.58-.14,3.78.34,1.66.63,3.26,1.42,4.78,2.35h0c.3.28.71.4,1.11.33.42-.09.74-.42.8-.85.29-2.18-.41-4.38-1.92-5.98,1.46.46,2.84,1.13,4.11,1.99.46.3,1.07.18,1.38-.27.22-.33.22-.76,0-1.09-.28-.36-.49-.76-.64-1.19l-.28-.72c-.09-.47-.09-.95,0-1.42v-.78c.08-1.01.37-1.99.86-2.87l-1.63-1.3c-.74,1.27-1.18,2.69-1.29,4.16v.65c-.07.54-.07,1.09,0,1.63-1.68-.82-3.52-1.24-5.38-1.24-.42,0-.79.26-.93.65-.12.39,0,.82.33,1.08,1.67,1.18,2.87,2.91,3.39,4.89-1.28-.72-2.62-1.34-3.99-1.86-2.9-.94-6.07-.6-8.71.93-.36.16-.59.52-.59.91,0,.4.24.76.6.91.29.12.6.19.91.23,1.46.13,2.9.49,4.26,1.06.41.13.75.42.95.8.69,1.42,1.73,2.64,3.03,3.54-.41.24-.77.57-1.04.96-.37.51-1.01.76-1.63.64-.5-.16-1.04.04-1.32.47-.31.43-.31,1.02,0,1.45h0c.65,1.16,1.94,1.8,3.26,1.63-.48.24-.97.43-1.48.57-1.81.41-3.49,1.26-4.89,2.48-.35.31-.8.49-1.27.51h0c-.63-.16-1.28.18-1.5.8-.24.68-.04,1.43.49,1.91.38.42.92.68,1.48.72.55.04,1.1,0,1.63-.13,1.61-.32,3.28-.32,4.89,0,.35.08.71.13,1.08.15-.15.29-.27.6-.37.91-.26.9-.6,1.32-1.21,1.5-.48.11-.84.5-.93.98-.08.5.15,1,.59,1.27.71.45,1.62.45,2.33,0,.66-.33,1.29-.71,1.87-1.16l.42-.31h.11l.28-.2c.37-.03.74-.03,1.11,0-.74,1.04-1.57,2.01-2.48,2.9l-.95.91c-.76.68-1.45,1.43-2.09,2.23-1.05,1.25-1.62,2.82-1.63,4.45.01.29.15.56.37.75.22.19.51.27.8.21.35-.07.68-.21.96-.42l.18-.13c1.01-.75,2.1-1.37,3.26-1.86,1.16-.44,2.41-.93,3.6-1.5l.37-.18c-.49,1.12-.61,2.37-.36,3.57.05.34.28.64.6.77.32.13.68.1.96-.1,1.38-1.05,2.91-1.89,4.53-2.51-.96,1.45-1.6,3.08-1.87,4.79-.09,2.68.71,5.31,2.27,7.48.42.35,1.05.3,1.4-.13.14-.16.22-.36.23-.58,0-1.03.16-2.02.31-3.02.05-1.37.95-2.56,2.25-2.98.96-.3,1.85-.8,2.61-1.45l.26-.23c.37-.36.82-.75,1.21-1.17l.54-.54c-.09-.81-.28-1.61-.57-2.38Z"/>
      <rect class="cls-1" x="54.8" y="10.01" width="2.17" height="2.17"/>
      <rect class="cls-1" x="62.92" y="10.01" width="2.17" height="2.17"/>
      <path class="cls-1" d="m52.46,7.24l6.52-4.74v4.26c0,.27.14.53.36.68h0c.3.21.7.21.99,0l.34-.24h0l6.52-4.74h0v4.3c0,.27.14.52.36.68h0c.3.21.7.21.99,0l.33-.24h0l6.52-4.74v2.28h1.63V.84c0-.27-.14-.52-.36-.68h0c-.3-.21-.7-.21-.99,0l-.33.24h0l-6.52,4.76V.84c0-.27-.14-.53-.36-.68h0c-.3-.21-.71-.21-1.01,0l-.33.24h0l-6.52,4.76V.84c.02-.26-.07-.51-.26-.68h0c-.3-.21-.7-.21-.99,0l-8.25,5.95c-.21.16-.34.42-.34.68v9.57l1.63,1.21.07-10.34Z"/>
      <path class="cls-1" d="m44.53,22.33l.95.55,1.08-1.87-.88-.54c-.98-.57-1.97-1.09-2.95-1.63l-.96-.47-.98,2.01.98.47c.91.46,1.84.96,2.77,1.48Z"/>
      <path class="cls-1" d="m83.86,38.67l1.08-.21-.42-2.12-1.06.21c-1.02.2-2.06.34-3.1.42l-1.08.08.18,2.15,1.08-.08c1.12-.09,2.23-.24,3.33-.46Z"/>
      <path class="cls-1" d="m59.56,32.85l1.22-1.79-2.53-1.74-1.03-.73-.88-.64-1.26,1.78.88.62,1.06.75,2.53,1.76Z"/>
      <path class="cls-1" d="m50.09,26.05l1.48,1.09.86.64,1.29-1.73-.88-.64c-.64-.46-1.11-.82-1.43-1.08l-1.17-.88-.86-.67-1.29,1.74.88.65c.39.36.78.64,1.12.86Z"/>
      <path class="cls-1" d="m76.01,39.24l.2-2.15-1.09-.1c-1.02-.1-2.03-.27-3.03-.51l-1.06-.26-.51,2.1,1.06.26c1.13.26,2.28.42,3.44.51l.99.15Z"/>
      <path class="cls-1" d="m67.26,37.2l.88-1.97-.99-.44c-.96-.42-1.9-.89-2.8-1.42l-.95-.52-1.06,1.89.95.52c.96.54,1.97,1.04,3,1.5l.98.44Z"/>
      <path class="cls-1" d="m129.57,67.8c1.63,8.67,9.96,13.56,10.55,13.89.75.45,1.52.85,2.32,1.21-.71-1.12-1.26-2.33-1.63-3.6-1.73-1.09-7.7-5.35-8.89-11.93-.8-4.39.67-9,4.35-13.76v-1.03c0-.81-.09-1.61-.28-2.4l-.65.65h0c-4.81,5.79-6.77,11.48-5.77,16.97Z"/>
      <path class="cls-1" d="m122.07,122.35l-.44-.11c-1.17-1.52-2.26-3.09-3.26-4.73-1.53-2.32-3.26-4.89-4.65-6.72,1.14-1.05,1.66-2.61,1.39-4.14,0,0-.44-4.39-2.3-4.61-.62-.07-1.21.31-1.39.91h0c-.33,1.26-1.02,2.39-1.99,3.26-.32-.17-.66-.29-1.01-.36.89-1.69.68-3.75-.52-5.23h0c-.2-.39-.6-.63-1.04-.62-.41,0-.78.24-.96.6-.12.22-.23.46-.31.7-.43,1.23-1.38,2.21-2.61,2.66-1.53.65-2.62,2.05-2.85,3.7-.61-.34-1.27-.6-1.96-.77-1.19-.23-2.41.05-3.37.78-.61.39-1.03,1.04-1.12,1.76.09,1,.62,1.91,1.45,2.48-.98.18-1.92.34-2.85.46-.51.86-1.11,1.67-1.79,2.4,2.56-.2,5.1-.62,7.6-1.24.44-.1.77-.46.83-.91.07-.45-.15-.89-.54-1.11-.9-.5-1.71-1.15-2.41-1.91.48-.38,1.1-.53,1.7-.41,1.11.28,2.11.9,2.85,1.78h0c.24.56.9.82,1.46.57.02-.01.05-.02.07-.04.54-.28.77-.93.51-1.48-1.11-2.85.72-3.73,1.3-4.03,1.08-.48,2.04-1.21,2.79-2.12-.21,1.12-.83,2.13-1.74,2.82-.49.37-.58,1.07-.2,1.56s1.07.58,1.56.2h0c.65-.51,1.55-.57,2.27-.15.37.32.89.4,1.34.2,1.24-.64,2.22-1.68,2.8-2.95.21.87.21,1.78,0,2.66-.16.6-.47.77-.72.83-.5.14-.89.51-1.08.99-.11.39-.02.8.24,1.11,1.89,2.39,3.65,4.88,5.27,7.47,2.45,3.72,3.36,5.05,4.06,5.45.33.16.68.27,1.04.33l.47.1c.11,1.07-.11,2.15-.62,3.1h-.13c-.25.06-.46.21-.62.41-.52.84-1.11,1.64-1.76,2.4-.7.6-1.63.26-2.93-.39-.49-.25-1-.46-1.53-.62-2.69-.74-5.52-.86-8.27-.33-1.59.34-3.13.89-4.58,1.63-1.81.9-2.8,5.02-3.15,6.73-.12.6.27,1.18.86,1.3h.23c.53,0,.98-.38,1.08-.9.25-1.86.92-3.64,1.97-5.2,1.28-.65,2.64-1.13,4.04-1.43,2.41-.47,4.9-.36,7.27.31.39.12.77.28,1.12.47,1.37.65,3.46,1.63,5.31,0,.75-.66,1.43-1.39,2.05-2.17h.24c.3-.06.56-.26.7-.54.21-.39,2.05-3.86.65-6.02-.41-.59-1.04-.72-1.83-.9Z"/>
      <path class="cls-1" d="m126.29,98.06c-3.31-.03-6.47,1.38-8.66,3.86h0v.11c-.23.28-.46.57-.65.86l.39.96c2.11.57,4.02,1.7,5.54,3.26l.41.42.57-.16c.73-.12,1.48,0,2.14.33l-3.02,5.54h-5.61l2.05,2.72h4.08c.99,0,1.99.18,2.98.33,2.37.32,4.7.87,6.96,1.63.52-.85,1.11-1.63,1.63-2.32-3.24-1.14-6.61-1.88-10.03-2.22l2.58-4.73c.46.32.83.76,1.08,1.26l.28.96.95-.26c1.66-.05,3.25.68,4.29,1.99h0c.26.26.51.54.75.83l.85.2c1.04-1.58,1.6-3.42,1.63-5.31-.28-5.91-5.27-10.49-11.18-10.27Zm8.8,12.77c-1.3-1.3-3.05-2.06-4.89-2.14-1.47-2.07-3.85-3.29-6.39-3.26-1.22-1.15-2.61-2.11-4.12-2.84,1.77-1.64,4.1-2.55,6.52-2.54,4.85-.2,8.95,3.55,9.18,8.4.03.8-.07,1.61-.29,2.38Z"/>
      <path class="cls-1" d="m99.18,126.48c.59-.32,1.28-.4,1.92-.23.49.13,1-.04,1.32-.42.3-.37.37-.87.18-1.3-.27-.66-.73-1.23-1.32-1.63-.72-.47-1.57-.7-2.43-.65-1.5-1.97-3.56-3.45-5.9-4.26-.54-.12-1.08-.16-1.63-.13-1.79.11-3.51.79-4.89,1.94-1.42,1.21-2.45,2.82-2.95,4.61h0c-.22.68-.35,1.38-.41,2.09-.18,1.89.15,3.8.95,5.53l.44.93c.87,1.73,2.1,3.26,3.6,4.48.7.6,1.58.95,2.49,1.01.28,0,.55-.05.82-.15,1.3-.54,1.87-2.45,1.53-5.25h0c-.14-1.26-.35-2.5-.65-3.73-.2-.66-.35-1.33-.44-2.01,0,0-.36-2.69.98-3.13.93-.37,1.98-.09,2.61.68-.14.32-.25.66-.31,1.01-.23,1.18.14,2.4.98,3.26.35.39.91.52,1.4.33.5-.19.82-.67.8-1.21-.1-.73.26-1.44.91-1.78Zm-8.41,10.19c-.26.1-.86,0-1.63-.64-1.19-.96-2.18-2.16-2.9-3.51,1.17-1.3,2.92-1.92,4.65-1.63.15.8.29,1.97.33,2.23h0c.25,1.2.09,2.44-.44,3.54Zm-3.91-8.4c.19-.14.41-.25.64-.31.23-.04.47-.04.7,0,.07.51.07,1.02,0,1.53l-.46.18c-.37-.42-.67-.89-.88-1.4Zm9.96-1.63c-.03-.47.08-.94.33-1.35.14-.25.14-.56,0-.82-.36-.83-1.03-1.49-1.86-1.86-.96-.4-2.04-.45-3.03-.13-.76.22-1.4.74-1.78,1.43-.66,1.64-.71,3.46-.15,5.14h-.49c.06-.62.03-1.24-.1-1.84-.08-.4-.36-.73-.73-.88-.66-.21-1.37-.21-2.04,0-.67.17-1.28.55-1.73,1.08-.64.78,0,1.83.31,2.17s.18.31.31.51l.24.42-.72.47c-.54-1.37-.74-2.84-.59-4.3h0c.06-.47.14-.94.24-1.4v-.18h0c.72-2.99,3.29-5.18,6.36-5.4,2.28-.33,5.35,2.82,6.33,4.04.19.24.49.37.8.34.68-.13,1.38.04,1.92.46h0c-.71,0-1.41.17-2.04.49-.72.33-1.29.91-1.6,1.65v-.03Z"/>
      <path class="cls-1" d="m89.43,133.36c-.25-.15-.55-.19-.83-.11-.28.07-.53.25-.67.51-.3.51-.14,1.17.38,1.47,0,0,.01,0,.02,0,.17.1.36.16.55.16.09.02.19.02.28,0,.28-.07.53-.25.67-.51.3-.51.14-1.17-.38-1.47,0,0-.01,0-.02,0v-.05Z"/>
      <rect class="cls-1" x="65.89" y="19.98" width="5.85" height="2.17"/>
      <rect class="cls-1" x="65.89" y="23.6" width="5.85" height="2.17"/>
      <path class="cls-1" d="m82.57,10.23h-2.27c-.16,0-.29.13-.29.29h0v1.97h-1.97c-.16,0-.29.13-.29.29h0v2.27c0,.16.13.29.29.29h1.97v1.97c0,.16.13.29.29.29h2.27c.16,0,.29-.13.29-.29h0v-1.97h1.94c.16,0,.3-.13.31-.29v-2.27c0-.16-.14-.29-.31-.29h-1.96v-1.97c0-.16-.12-.28-.28-.29Z"/>
      <path class="cls-1" d="m84.56,29.44v-4.63h1.24v-1.26h-8.74v1.26h1.22v5.74l1.24-.1v-5.64h3.75v4.89l1.29-.26Z"/>
      <path class="cls-1" d="m73.19,6.75v9.68h-9.68c-.52,0-.95.42-.95.95h0v7.79l1.87,1.19v-8.05h8.75v11.82c.62.14,1.24.24,1.87.31V7.61h12.73v19.89l1.89-1.35v-7.84h8.75v3.75l.39.28c.35-.48.88-.79,1.47-.86v-4.09c0-.52-.41-.94-.93-.95h-9.68V6.75c0-.52-.43-.93-.95-.93h-14.67c-.49.03-.87.44-.88.93Z"/>
      <path class="cls-1" d="m80.53,93.69l-.13,6.96c.37,0,.74.05,1.09.15.36.09.71.22,1.04.39l3.26-6.18c-1.38-1.38-3.4-1.89-5.27-1.32Z"/>
      <path class="cls-1" d="m78.8,100.88l-2.12-6.52c-1.92,0-3.69,1.05-4.61,2.74l4.89,5.01c.51-.54,1.14-.96,1.84-1.22Z"/>
      <path class="cls-1" d="m68.5,105.33l6.99.13c0-.38.04-.77.13-1.14.1-.34.23-.68.39-.99l-6.2-3.18c-1.35,1.36-1.86,3.34-1.32,5.18Z"/>
      <path class="cls-1" d="m71.76,113.79l5.04-4.89c-.51-.53-.9-1.17-1.12-1.87l-6.65,2.17c0,1.92,1.05,3.68,2.74,4.6Z"/>
      <path class="cls-1" d="m74.91,116.12h.1l.13.1h0l.15.11h0l.16.11h0l.2.13h0c.06.05.14.1.21.13h0l.24.13h0l.55.51h0l.29.11h2.93v-.18l.13-6.85h0c-.37,0-.75-.05-1.11-.15-.35-.1-.69-.22-1.01-.37l-2.67,5.2-.52,1.03h0l.21-.02Z"/>
      <path class="cls-1" d="m88.53,114.09l-4.89-5.05c-.53.51-1.17.9-1.87,1.12l2.14,6.67c1.93,0,3.71-1.04,4.63-2.74Z"/>
      <path class="cls-1" d="m92.17,105.79l-6.99-.13c-.02.36-.07.71-.15,1.06-.1.37-.24.72-.41,1.06l6.23,3.26c1.37-1.37,1.88-3.39,1.32-5.25Z"/>
      <path class="cls-1" d="m91.58,101.92c0-1.92-1.05-3.68-2.74-4.6l-5.02,4.89c.51.54.9,1.18,1.12,1.89l6.64-2.18Z"/>
      <circle class="cls-1" cx="80.3" cy="105.53" r="3.52"/>
      <rect class="cls-1" x="80.6" y="66.69" width="2.17" height="2.17"/>
      <rect class="cls-1" x="80.6" y="70.33" width="2.17" height="2.17"/>
      <rect class="cls-1" x="103.84" y="66.69" width="2.17" height="2.17"/>
      <rect class="cls-1" x="103.84" y="70.33" width="2.17" height="2.17"/>
      <rect class="cls-1" x="108.62" y="35.05" width="2.17" height="2.17"/>
      <rect class="cls-1" x="95.59" y="28.23" width="2.17" height="2.17"/>
      <path class="cls-1" d="m24.15,96.4c7.16,1.63,14.67,5.51,18.57,10.01l2.45-.86c-4.14-5.22-12.42-9.78-20.48-11.53-7.68-1.89-15.78-1.21-23.04,1.94v2.76c6.95-3.55,14.97-4.37,22.5-2.32Z"/>
      <path class="cls-1" d="m27.37,92.17h0c7.47,1.63,16.47,7.37,20.35,12.23l2.41-.85h0c-3.7-5.05-12.42-10.87-20.31-13.19.44-.28,1.24-.73,1.39-.88l1.09-.91c7.58,2.22,16.82,8.95,20.18,13.94h0l2.38-.83-.42-.64c-.88-1.26-1.88-2.44-2.97-3.52.59-.41,2.1-1.45,2.53-1.63,5.77-3.34,21.1-7.99,28.84-5.98l.39.26c2.53,1.7,5.47,2.68,8.51,2.85h2.02c1.6-.11,3.18-.46,4.68-1.04l.37-.16c1.41-.56,2.95-.66,4.42-.28.71.21,1.36.57,1.91,1.06l.21.16.78.62c2.47,2.18,5.49,3.64,8.74,4.22,2.09.18,4.2.04,6.24-.42.34,0,.7-.15,1.04-.24,1.1-.5,2.24-.91,3.41-1.24,2.09-.39,4.23-.34,6.29.15-.5-.88-.83-1.84-.98-2.84-1.48,0,0,0-1.73-.1-2.39-.21-4.8.18-6.99,1.14l-1.14.33c-1.42.4-2.88.62-4.35.65h-.29c-2.72-.35-5.33-1.32-7.61-2.85l-.52-.37c-.8-.59-1.63-1.26-2.4-1.81-.44-.3-.92-.55-1.42-.73-2.21-.83-4.66-.78-6.83.15-1.79.71-3.71,1.02-5.62.9-3.85-.13-8.35-3.26-8.35-3.26-2.92-2.45-6.23-4.4-9.78-5.77h0c3.56-1.95,7.41-3.31,11.41-4.03.73-.15,1.47-.26,2.22-.36s1.58-.29,2.45-.29,5.02-.08,5.02-.08c1.09,0,2.2,0,3.26.08,6.96.38,13.67,2.72,19.37,6.73.31-.95.84-1.81,1.53-2.53-2.96-2.06-6.23-3.65-9.68-4.71l-.08-12.29c0-.29-.11-.58-.33-.78-.21-.22-.5-.34-.8-.33h-5.79v-.62c0-.38-.2-.73-.52-.93l-7.56-4.89v-1.16h5.79c.61,0,1.12-.48,1.12-1.09,0-.01,0-.02,0-.03v-3.44c0-.61-.48-1.12-1.09-1.12,0,0-.01,0-.02,0h-6.91c-.3,0-.59.12-.8.33-.2.22-.31.5-.31.8v5.72l-7.53,4.89c-.31.2-.51.55-.51.93v.62h-5.8c-.61,0-1.11.5-1.11,1.11,0,0,0,.01,0,.02l.15,12.78-.37.15c-.59.23-1.16.47-1.73.73l-.44.21c-.82-1-1.52-2.09-2.07-3.26-.4-.81-.71-1.66-.93-2.54-.21-.91-.31-1.85-.29-2.79.03-.96.18-1.91.44-2.84l.91-2.98c-1.14-.13-2.32-.21-3.49-.26v-3.47c.06-.36.15-.71.26-1.06.03-.15.08-.3.15-.44,0-.05,0-.11,0-.16l.39-.2c.16-.33.37-.64.57-.95l.2-.26.11-.16.36-.44c.23-.26.49-.52.75-.77l.34-.31.15-.11.15-.1c.26-.19.52-.36.8-.52l.37-.2.23-.11.21-.08c.53-.2,1.08-.36,1.63-.47.12,0,.24,0,.36,0h.29c.28-.02.55-.02.83,0h1.45c.66.1,1.32.26,1.96.47l.44.16c.06,0,.12,0,.18,0h-.13.11c.19.08.38.18.55.29.36.21.74.38,1.12.52,2.14.68,4.42-.11,6.52-.49l1.17-.21v-2.15l-.91.16-2.59.52-.78.16h-2.27l-.36-.08-.31-.1h0l-.47-.13c-.48-.26-.97-.49-1.48-.68-1.27-.45-2.6-.69-3.95-.73-2.78-.08-5.46.98-7.43,2.93-1.33,1.25-2.28,2.85-2.74,4.61-.3,1.48-.43,2.99-.37,4.5h-2.98c.02-2.31.36-4.61,1.03-6.83.17-.57.4-1.11.68-1.63.13-.26.29-.54.46-.8l.23-.33.13-.2.1-.11c.35-.43.73-.83,1.14-1.21l.33-.28.16-.13s-.13.1,0,0,.46-.33.7-.47c.48-.31.98-.59,1.5-.83l.34-.15.23-.1.86-.31c1.12-.31,2.27-.55,3.42-.72,1.29-.17,2.51-.67,3.55-1.45.93-.73,1.63-1.76,2.48-2.53l.64-.46c.32-.17.64-.33.98-.46l.86-.42h.23l.51-.2c1.08-.39,2.18-.73,3.29-1.01l.36-.08c1.99-.42,4.03-.58,6.06-.49,4.12.27,8.2.95,12.18,2.02,3.61.94,7.28,1.6,10.99,1.97h1.06c3.95-.03,7.77-1.44,10.79-3.98l-1.71-1.4c-2.54,2.01-5.65,3.15-8.89,3.26v-7.43c0-.27-.13-.53-.36-.68l-1.63-1.19v-4.11c0-.47-.38-.85-.85-.85,0,0-.01,0-.02,0h-2.64c-.47,0-.85.38-.85.85v.96l-2.36-1.63c-.29-.22-.7-.22-.99,0l-3.26,2.33v-2.27c0-.27-.13-.52-.34-.68l-1.63-1.19v-4.11c0-.47-.38-.85-.85-.85h-2.54c-.47,0-.85.36-.86.83,0,0,0,.01,0,.02v.96l-2.35-1.63c-.3-.21-.7-.21-.99,0l-8.31,5.97c-.19.13-.31.33-.34.55-6.06,2.27-11.23,2.72-15.78,1.43-5.54-1.86-10.67-4.79-15.1-8.61l-.2-.15c-3.82-3.25-7.99-6.07-12.44-8.4-.54.56-1.14,1.06-1.79,1.48h0c4.47,2.24,8.68,4.97,12.54,8.15,4.89,3.72,9.93,7.58,16.04,9.46,5.57,1.46,11.46,1.08,16.79-1.09v5.84l1.63-.62v-6.93l7.42-5.38,3.26,2.25c.39.27.93.17,1.2-.22.09-.14.15-.3.15-.46v-1.76h.85v3.68c0,.28.14.54.36.7l1.63,1.19v3.05l-3.34,2.41c-.22.16-.35.41-.34.68v4.01c-4.1-.85-8.32-.92-12.44-.21-.1-.02-.2-.02-.29,0-1.43.36-2.83.79-4.21,1.3-6.14,1.69-12.69,1.11-18.44-1.63-6.06-2.79-11.09-7.39-16.47-11.25-6-4.32-12.55-8.33-20.12-8.56-5.2-.16-10.43.18-15.63.2v2.1c4.89,0,9.78-.26,14.57-.21,2.83-.05,5.64.44,8.3,1.42,4.27,1.85,8.31,4.2,12.02,7.01,4.26,3.08,8.31,6.6,12.85,9.31-3.3-.21-6.62-.13-9.91.24-4.45.47-8.77,1.78-12.73,3.86-2.11,1.14-4.05,2.56-5.77,4.24l1.53,1.53c.36-.34.72-.68,1.09-.99s.36-.33.55-.47l.29-.24h0l.16-.11c.82-.59,1.67-1.14,2.54-1.63.9-.52,1.82-.98,2.77-1.4l.33-.15h.18l.78-.31,1.42-.51c4.36-1.35,8.91-1.97,13.47-1.84,2.74,0,5.48.23,8.15.49h.2c4.21,1.69,8.75,2.38,13.27,2.02-.26.31-.52.62-.8.91s-.42.42-.65.62h0l-.16.11-.42.24h-.24l-.42.15c-.3.09-.6.17-.91.23-1.2.17-2.38.41-3.55.72-1.19.34-2.32.83-3.39,1.45-2.22,1.36-3.93,3.4-4.89,5.82-1.03,2.7-1.58,5.56-1.63,8.44h-.83c-.85,0-1.63.18-2.51.29,0,0,.85,2.85.86,2.98.19.86.28,1.74.26,2.62-.06,1.79-.52,3.54-1.35,5.12-.5.96-1.1,1.87-1.79,2.71-.39.46-.8.91-1.26,1.37h-1.12c-.65,0-1.3,0-1.96.08l-1.22.11c-.46,0-.91.08-1.35.15v-4.53h2.53c.75,0,1.48-.2,2.14-.57.31-.26.75-.72.77-.73,1.03-.97,1.62-2.32,1.63-3.73,0-.47-.38-.85-.85-.85,0,0-.01,0-.02,0h-2.9c-1.18-.01-2.34.39-3.26,1.12v-1.81c1.65.53,3.41-.37,3.94-2.02,0,0,0-.01,0-.02,1.04.25,2.13-.07,2.89-.83.76-.76,1.08-1.85.85-2.9,1.64-.51,2.55-2.26,2.04-3.9-.14-.44-.37-.84-.69-1.18.74-.79,1.01-1.91.72-2.95-.26-1.03-1.05-1.85-2.07-2.15.23-1.05-.09-2.14-.85-2.9-.75-.76-1.84-1.08-2.89-.83-.53-1.65-2.31-2.56-3.96-2.03-.42.14-.81.36-1.14.66-.79-.73-1.9-1-2.93-.72-1.04.27-1.86,1.06-2.17,2.09-1.69-.37-3.36.69-3.73,2.38-.1.45-.1.91,0,1.35-1.02.3-1.82,1.12-2.09,2.15-.28,1.04-.01,2.16.72,2.95-.73.78-1,1.89-.72,2.92.27,1.04,1.06,1.86,2.09,2.17-.37,1.69.69,3.36,2.38,3.73.45.1.91.1,1.35,0,.25.84.84,1.52,1.63,1.89.78.37,1.67.41,2.48.1v1.92c-.92-.75-2.07-1.17-3.26-1.19h-2.92c-.47,0-.85.36-.86.83,0,0,0,.01,0,.02,0,1.4.55,2.74,1.55,3.72.5.62,1.19,1.06,1.96,1.26,1.18.11,2.36.14,3.54.08v4.89c-4.26.72-8.38,2.13-12.19,4.16v-1.16l1.29-.46c1.17-.44,2.35-.98,2.76-1.17.57-.16,1.06-.55,1.34-1.08h0c.24-.51.32-1.08.23-1.63v-.1s0-.24-.11-.54h0c0-.08,0-.2-.08-.31-.05-.31-.12-.62-.21-.93-.08-.32-.18-.63-.29-.93l-.1-.29-.18-.59h0c-.16-.43-.43-.82-.78-1.12l-.33-.24h0l-.21-.11h0c-.45-.21-.96-.26-1.45-.15-.42,0-1.63.16-2.93.37l-1.37.26c-.06-.14-.14-.27-.23-.39l-.18-.28v-.1h0l-.44-.62.54-1.48c.68-1.04,1.32-2.17,1.53-2.56.36-.46.52-1.05.46-1.63h0c-.09-.58-.37-1.11-.8-1.52h0s-.2-.16-.41-.37h0l-.24-.23c-.25-.23-.51-.45-.78-.65l-1.53-1.19h0c-.59-.4-1.32-.55-2.02-.42-.49.1-.93.37-1.26.75-.33.29-1.27,1.12-2.15,2.04-.31.31-.65.67-.96,1.01-.14-.07-.28-.13-.42-.18l-.37-.15-.47-.16-.34-.16h-.16v-1.37c0-.49-.08-1.39-.16-2.17l-.11-.82c.02-.48-.12-.95-.41-1.34-.42-.58-1.05-.96-1.76-1.06-.24-.05-.49-.08-.73-.1h-1.24c-.47-.03-.95-.03-1.42,0h-.52c-.72.01-1.4.31-1.89.83-.34.36-.54.83-.57,1.32,0,.18-.11.46-.18.82-.13.64-.26,1.42-.37,2.12-.11.7-.13.98-.18,1.39h-.31l-.42.1c-.22.04-.44.1-.65.18l-.31.07c-.24-.33-.54-.7-.86-1.09-.77-.98-1.63-1.91-1.94-2.23-.29-.43-.73-.74-1.22-.88-.7-.21-1.45-.11-2.07.28l-1.63.91-1.55,1.12c-.19.13-.36.28-.51.46v3.42c.24.55.6,1.32.99,2.07l.67,1.22-.21.18c-.16.15-.29.31-.41.49h0l-.31.41-.13.18h0l-.6-.02v3.13l.65.21,1.16.41.73-1.26c.12-.2.26-.39.41-.57.11-.1.21-.2.31-.31l.26-.36h0l.11-.15h0l.78-.88.98-.98-.51-.98-.13-.2s0-.13-.11-.21c-.33-.54-.67-1.16-.96-1.71-.47-.91-.91-1.87-1.11-2.35l1.09-.8,1.22-.7c.36.39,1.06,1.17,1.63,1.97s.98,1.24,1.21,1.63h0c.06.07.12.14.16.23l.67.95,1.08-.41h.18l1.12-.39h0c.06-.01.13-.01.2,0l.47-.11h.33c.21,0,.46-.11.68-.15l1.47-.18.1-1.22c0-.2.1-1.21.26-2.32.1-.65.23-1.37.34-1.97l.13-.57h1.35l1.09.08h.29v.62c0,.7.13,1.37.16,1.97v3.24l1.63.41.36.1h.23l.23.08.41.15.44.16.54.24.44.21h.16l1.06.55.83-.98c.07-.08.14-.16.2-.24.41-.46.88-.96,1.32-1.42.72-.73,1.5-1.45,1.87-1.78l1.17.86.54.47.28.24.16.15c-.28.47-.8,1.39-1.35,2.22s-.98,1.45-1.34,1.91l-.7.95.77.93.11.11h0c.39.52.65.9.86,1.16h0l.65,1.12v.15h0v.1l.52,1.06,1.16-.26c.46-.11,1.35-.31,2.3-.47s2.05-.29,2.56-.34v.2l.34,1.12c.1.41.2.82.28,1.12v.2c-.51.23-1.45.65-2.4,1.01s-1.63.59-2.2.75l-1.12.36.08,1.19c0,.05,0,.11,0,.16h0v1.43h0s-.08.65-.16,1.63h0v.16l-.11.73c-.8.55-1.57,1.14-2.32,1.78-1.43.86-2.92,1.61-4.47,2.25-7.13-1.3-14.46-.9-21.41,1.16l.15-.1c-.13-.24-.36-.62-.65-1.11h0l.39.26-.51-.96-1.12.21v5.85c7.63-3.96,18.96-3.62,25.71-1.89Zm79.77-27.32v10.5c-1.63-.42-3.13-.77-4.66-1.03v-9.44l4.66-.03Zm-13.04,8.9h-2.69v-3.46c-.1-1.09.71-2.06,1.8-2.16,1.09-.1,2.06.71,2.16,1.8.01.12.01.24,0,.36v3.46h-1.27Zm4.89-22.09v1.22h-4.63v-1.22h4.63Zm-5.75,6.52l6.96,4.42v11.41l-1.89-.18h-1.74v-3.57c0-1.82-1.48-3.3-3.3-3.3s-3.3,1.48-3.3,3.3v3.49h-.26c-1.11.08-2.2.2-3.26.36v-11.41l6.8-4.52Zm-9.15,6.75l.08,9.57h-.39c-1.45.31-2.88.69-4.29,1.14v-10.78l4.6.07Zm18.21-28.27l7.42-5.38,3.26,2.25c.27.17.62.17.9,0,.28-.14.46-.43.46-.75v-1.7h.86v3.68c0,.28.13.54.36.7l1.63,1.19v6.78c-3.43-.43-6.83-1.05-10.19-1.87-1.45-.34-3.02-.7-4.63-1.03l-.07-3.88Zm-56.83,55.89c-.85-.6-1.71-1.19-2.61-1.74.54-.46,1.12-.89,1.71-1.29,5.18-3.44,15.23-6.78,22.25-7.6l.78.18c1.11.26,2.18.57,3.26.93h.23c-8.28.98-16.27,3.67-23.46,7.89-.57.34-1.11.72-1.63,1.14l-.54.49Zm30.49-7.39c1.12.59,2.21,1.25,3.26,1.96-7.81-.34-20.77,3.15-26.95,6.88-.57.34-1.11.72-1.63,1.12l-.98.75c-.7-.62-1.43-1.22-2.2-1.83l.11-.11c.6-.48,1.23-.92,1.89-1.32,5.71-3.51,19.04-7.73,26.49-7.45Zm-15.96-8.15c.54-.83,1.01-1.7,1.4-2.61.7-1.65,1.09-3.42,1.14-5.22,0-1.1-.1-2.19-.33-3.26,1.91-.16,3.84-.22,5.75-.16h1.32c-.29,1.06-.45,2.16-.49,3.26-.03,1.43.16,2.86.57,4.24.25.88.58,1.74.99,2.56,0,.15.15.31.23.46.5.93,1.07,1.8,1.73,2.62-.6.34-1.17.68-1.73,1.04l-.18.1-.99-.2c-1.67-.46-3.37-.81-5.09-1.04-1.09-.16-2.18-.28-3.26-.36-.67,0-1.32,0-1.99-.08.31-.51.62-.95.91-1.39v.03Zm-6.99-7.11h1.94c-.4,1.54-1.79,2.62-3.39,2.62h-1.78v-.44c.52-1.33,1.8-2.21,3.23-2.22v.03Zm-1.22-4.89c-.12.32-.39.56-.72.65h0c-.34.08-.7.01-.98-.2-.27-.22-.42-.54-.42-.88v-1.91c.4-.07.79-.18,1.17-.33l.93,1.63c.15.3.16.66.02.96v.07Zm3.44-1.78h0c-.24.24-.59.36-.93.31-.34-.04-.65-.24-.82-.54l-.93-1.63c.31-.25.6-.54.85-.86l1.63.93c.31.17.51.48.55.83.03.34-.1.67-.36.9v.07Zm2.4-4.17h0c-.08.33-.32.61-.64.73-.3.15-.66.15-.96,0l-1.63-.95c.14-.39.24-.79.31-1.19h1.86c.35,0,.67.16.88.44.18.26.25.59.18.9v.07Zm-1.63-5.48h0c.51-.31,1.19-.15,1.5.36.06.1.1.2.13.31h0c.08.33.01.69-.2.96-.21.28-.53.44-.88.44h-1.86c-.07-.4-.17-.8-.31-1.19l1.63-.91-.02.03Zm-2.53-3.26c.17-.3.47-.5.82-.54.34-.05.69.07.93.31h0c.24.24.36.58.31.91-.04.35-.25.66-.55.83l-1.63.93c-.25-.32-.53-.61-.85-.86l.98-1.58Zm-3.83-1.63c0-.34.15-.66.42-.86.28-.21.64-.28.98-.2h0c.33.09.59.32.72.64.15.31.15.67,0,.98l-.93,1.63c-.38-.15-.77-.26-1.17-.33l-.02-1.86Zm-4.17-.41c.14-.31.41-.54.73-.64h0c.6-.15,1.21.21,1.37.81.02.08.03.16.03.25v1.79c-.4.07-.8.18-1.17.33l-.93-1.63c-.15-.29-.17-.63-.05-.93l.02.02Zm-3.42,1.78h0c.45-.43,1.16-.42,1.59.03.06.06.11.13.15.2l.93,1.63c-.32.26-.61.55-.86.86l-1.63-.93c-.3-.18-.49-.49-.54-.83-.06-.36.07-.73.34-.98l.02.02Zm-2.4,4.16h0c.09-.33.33-.6.65-.73.31-.15.67-.15.98,0l1.63.93c-.14.39-.25.78-.31,1.19h-1.89c-.35,0-.67-.16-.88-.44-.21-.27-.28-.63-.2-.96l.02.02Zm1.63,5.51c-.53.31-1.21.13-1.52-.4-.05-.09-.09-.18-.11-.27h0c-.09-.34-.02-.7.2-.98.21-.28.53-.44.88-.44h1.86c.06.41.17.8.31,1.19l-1.63.93.02-.03Zm2.54,3.26c-.29.53-.96.72-1.48.43-.1-.05-.18-.12-.26-.2h0c-.24-.24-.36-.58-.31-.91.04-.34.24-.65.54-.83l1.63-.93c.26.32.55.61.86.86l-.98,1.58Zm.67-6.36c0-2.3,1.84-4.16,4.14-4.17,2.3,0,4.16,1.84,4.17,4.14,0,2.3-1.84,4.16-4.14,4.17-.01,0-.02,0-.03,0-2.29,0-4.15-1.86-4.16-4.16l.02.02Zm2.72,8.8c-.27.21-.63.28-.96.2h0c-.32-.09-.59-.33-.72-.64-.16-.31-.16-.68,0-.99l.93-1.63c.38.15.77.26,1.17.33v1.86c0,.34-.17.66-.44.86l.02.02Zm-1.52,7.06c-1.55-.06-2.87-1.13-3.26-2.62h1.92c1.49.02,2.8.99,3.26,2.41v.21h-1.92Zm-8.02,12.5c3.72-1.84,7.71-3.06,11.82-3.62.98-.15,1.97-.24,2.98-.31h6.46c-5.79,1.41-11.32,3.75-16.37,6.93-.58.4-1.12.85-1.63,1.34l-.21.21c-1.92-1.09-3.93-2.02-6-2.79.95-.65,1.97-1.22,3.02-1.76h-.07Z"/>
      <path class="cls-1" d="m24.48,185.93l-1.14,1.48c-1.15-.4-2.25-.95-3.26-1.63l1.63-2.23,1.09-1.42c-.21-.13-1.16-.9-1.39-1.08-3.54-2.87-10.61-6.9-15.78-7.61h0c-.67-.08-3.18-.31-3.86-.36v2.89l-.11,1.11v1.84l.08-.15c.82.1,1.63.21,2.41.37,5.1.92,9.79,3.36,13.47,7.01.11.13.59.52.59.52,1.42,1.18,3.09,2.01,4.89,2.41-.26,1.52-1,2.91-2.12,3.98-.36-.45-.78-.85-1.26-1.19-1.3-.86-2.86-1.22-4.4-1.03-1.32,0-2.63-.22-3.88-.62-1.62-.76-3.04-1.87-4.16-3.26-.6-.94-1.31-1.8-2.12-2.56-1.02-.76-2.24-1.2-3.51-1.27v1.63c.84.04,1.66.29,2.38.73.98.99,1.85,2.08,2.59,3.26,1.04.99,2.2,1.86,3.44,2.58,1.72.67,3.55,1.04,5.4,1.09h.26c.99-.11,1.99.08,2.87.55.42.29.79.63,1.11,1.03h0l.91,1.43.28-.15h0l.24-.21c.37-.21.72-.45,1.06-.7l-.16-.15c1.34-1.36,2.31-3.05,2.8-4.89l.11-.51.15-1.16c-.31-.01-.62-.05-.93-.11l.86-1.11.72-.91.83-1.03-4.11-.78,2.01,2.18Zm-19.79-8.4c-.62-.13-1.24-.23-1.84-.31l1.73-2.25.9.1c.78.11,1.55.28,2.3.51l-1.81,2.25c-.42-.11-.85-.21-1.27-.29Zm2.74.7l1.76-2.2c1.32.47,2.62,1.02,3.88,1.63l-1.63,2.09c-1.3-.6-2.64-1.1-4.01-1.52Zm5.18,2.15l1.63-2.05c.88.47,1.73.96,2.53,1.45l-1.63,2.09c-.81-.54-1.66-1.04-2.53-1.48Zm3.72,2.3l1.63-2.14c.96.64,1.83,1.27,2.53,1.84l-1.83,2.38c-.72-.76-1.5-1.45-2.33-2.09Z"/>
      <path class="cls-1" d="m19.25,161.14c3.29.54,6.37,1.99,8.87,4.21l1.21-2.22c-2.42-2.38-5.55-3.9-8.92-4.34l-1.16,2.35Z"/>
      <path class="cls-1" d="m14.47,169.73c3.34.58,6.44,2.1,8.95,4.37l1.19-2.28c-2.38-2.41-5.49-3.97-8.85-4.43l-1.29,2.35Z"/>
      <path class="cls-1" d="m16.9,165.24c3.33.59,6.42,2.1,8.93,4.35l1.19-2.25c-2.43-2.38-5.56-3.91-8.93-4.35l-1.19,2.25Z"/>
      <path class="cls-1" d="m13.07,160.37c-1.68-1.28-3.53-2.33-5.49-3.13h0c.24-.23.93-1.21.62-1.42s-.93,0-1.39.36c0-.49-.23-.99-.54-1.09s-.72,1.01-.75,1.35v.11c-1.26-.44-2.55-.77-3.86-.98v2.61c3.71.65,7.21,2.15,10.24,4.39l1.17-2.2Z"/>
      <path class="cls-1" d="m1.74,163.45h.34c2.64.82,5.11,2.15,7.25,3.9l1.17-2.2c-2.6-1.96-5.56-3.41-8.71-4.27-.1.85-.12,1.72-.07,2.58Z"/>
      <path class="cls-1" d="m15.95,155.27l-.41-.23c-.46-.26-.93-.51-1.42-.75.26-.03.5-.16.67-.36.24-.24.95-1.21.62-1.42s-.95,0-1.39.34c0-.47-.23-.96-.52-1.06s-.73,1.01-.77,1.35c-.03.16-.03.33,0,.49-2.39-1.03-4.88-1.84-7.42-2.41.17-.16.3-.36.36-.59.11-.31.31-1.5,0-1.63s-.9.55-1.16,1.06c-.24-.51-.75-1.11-1.14-1.06s-.2,1.24-.08,1.63v.18l-1.63-.26v2.54c4.59.72,9.01,2.28,13.04,4.58l1.24-2.41Z"/>
      <path class="cls-1" d="m19.21,195.6c-.4-.54-.88-1.01-1.42-1.4-1.3-.85-2.86-1.21-4.4-1.01-1.3-.03-2.59-.23-3.83-.62-1.62-.76-3.04-1.87-4.16-3.26-.61-.89-1.32-1.71-2.12-2.45-.49-.38-1.04-.68-1.63-.9v1.74l.46.23c.98.99,1.85,2.08,2.59,3.26,1.05,1.02,2.21,1.9,3.47,2.64,1.72.68,3.55,1.04,5.4,1.08h.26c.99-.1,1.99.08,2.87.54.41.3.78.65,1.09,1.04h0l.91,1.45.28-.16c.47-.27.93-.56,1.37-.88-.07-.07-.15-.14-.21-.21-.33-.34-.64-.71-.93-1.09Z"/>
      <circle class="cls-1" cx="33.38" cy="127.16" r="1.17"/>
      <circle class="cls-1" cx="29.96" cy="125.66" r="1.17"/>
      <rect class="cls-1" x="46.63" y="123.53" width="6.73" height="1.68" transform="translate(-83.13 108.71) rotate(-61.39)"/>
      <rect class="cls-1" x="49.99" y="125.46" width="6.72" height="1.68" transform="translate(-83.08 112.71) rotate(-61.41)"/>
      <rect class="cls-1" x="53.68" y="127.47" width="6.72" height="1.68" transform="translate(-82.92 116.99) rotate(-61.41)"/>
      <path class="cls-1" d="m74.63,142.65c-.88-.29-1.82-.38-2.74-.24-1.66.28-3.29.68-4.89,1.19-1.08.28-2.12.65-3.26.95-.99.3-2.02.44-3.05.42h-1.34c-.52-.1-1.03-.2-1.53-.34-.94-.31-1.85-.71-2.71-1.19-.92-.48-1.8-1.03-2.64-1.63-.85-.63-1.77-1.17-2.72-1.63-1.07-.48-2.22-.76-3.39-.82-1.16-.03-2.32.13-3.42.47-.93.26-1.86.52-2.79.72l-1.16.24h-.9c-.71.09-1.43.12-2.15.11h-1.35l-.59-.11c-.82-.18-1.62-.43-2.4-.75h-.16l-.29-.13-.68-.33c-.44-.23-.9-.46-1.32-.72s-.6-.36-.9-.54h0l-.51-.33c-3.74-3.02-8-5.32-12.59-6.78-3.63-1.14-7.39-1.83-11.18-2.05-.75,0-1.48-.08-2.23-.1v2.17h1.63c.54,0,1.5.1,2.25.18.42,0,.85.05,1.27.15h.37l.7.1c1.92.3,3.81.72,5.67,1.27,1.04.31,2.05.65,3.06,1.03l.75.31.31.11h0l.28.11,1.53.72c1.17.59,2.33,1.22,3.44,1.92,1.13.74,2.22,1.55,3.26,2.41h0c-.81.7-1.57,1.45-2.28,2.25-.93-.51-1.86-.96-2.82-1.4.31.11.59-.1.85-.34s.93-1.19.62-1.42-.95,0-1.39.36c0-.47-.23-.96-.54-1.06s-.72,1.01-.77,1.34c-.04.2-.04.42,0,.62-2.52-1.05-5.13-1.86-7.79-2.45.13-.1.24-.22.33-.36.2-.28.7-1.35.36-1.52s-.91.21-1.3.6c-.1-.46-.36-.9-.68-.9s-.52,1.12-.51,1.47c-.01.14-.01.27,0,.41-1.74-.31-3.49-.54-5.25-.67.07-.12.12-.26.16-.39.11-.31.31-1.48,0-1.55s-.9.55-1.16,1.06c-.24-.51-.75-1.11-1.14-1.06s-.2,1.24-.08,1.55c.03.09.07.18.11.26h-.21l-1.12-.1v3.08h1.03c6.72.16,13.32,1.83,19.3,4.89-.61.88-1.16,1.8-1.63,2.76-.96-.51-1.96-.96-2.98-1.39.09-.07.18-.14.26-.23.24-.23.95-1.19.64-1.42s-.95,0-1.4.36c0-.47-.23-.96-.52-1.06s-.72,1.01-.77,1.34c0,.1,0,.21,0,.31-1.66-.58-3.35-1.05-5.07-1.42h0c.21-.28.72-1.35.36-1.5s-.91.21-1.29.59c-.15-.47-.41-.93-.72-.98s-.54,1.12-.52,1.47c0,.04,0,.08,0,.11-1.14-.2-2.32-.33-3.49-.42.07-.1.11-.21.15-.33.11-.33.31-1.5,0-1.63s-.9.55-1.16,1.04c-.24-.49-.75-1.11-1.14-1.04s-.2,1.22,0,1.63c0,.07,0,.13,0,.2h-.95v2.71h.88c10.19.33,19.56,4.47,24.83,10.68-3.1-1.39-6.96-2.71-7.12-2.77l-.98-.33h0l-9.88,17.38c-2.24-1.78-4.89-2.98-7.71-3.47,0,0-.1.1-.11.26v1.94c2.69.52,5.16,1.84,7.11,3.77h0l1.24.47s5.31,2.09,6.88,2.92,5.97,3.93,5.97,3.96l1.12.78,10.61-19.86-.72-.64-.86-.68-.28-.6c-1.43-2.87-3.41-5.44-5.84-7.55,1.08-1.67,2.37-3.2,3.85-4.53v-3.26c-2.28,1.74-4.28,3.8-5.95,6.13-.65-.48-1.32-.93-2.01-1.37.09-.1.17-.23.21-.36.4-.84.85-1.66,1.35-2.45,1.29-1.74,2.81-3.29,4.52-4.63,2.4,1.35,5.12,2.06,7.87,2.04,1.57-.08,3.14-.31,4.66-.7,1.04-.24,2.05-.6,3.11-.83h1.32c.48-.01.96.04,1.43.15,1.97.69,3.81,1.72,5.43,3.03,1.85,1.09,3.89,1.82,6.02,2.14,1.08.19,2.17.24,3.26.13,1.15-.14,2.28-.38,3.37-.73.95-.29,1.91-.55,2.85-.83.95-.28,1.52-.47,2.28-.67.42-.11.85-.18,1.26-.26h.46c.22-.02.45-.02.67,0h.52c.22.04.43.09.64.16h.1l.24.15.41.24.34.23c1.24,0,2.46-.11,3.68-.21-.72-.44-1.42-.9-2.12-1.35-.64-.46-1.33-.84-2.05-1.14Zm-53.8-2.38h0c.05.05.1.1.16.13l-.16-.13Zm8.54,18.62c1.08.71,2.13,1.48,3.13,2.3l-8.85,16.96c-1.45-1.01-4.66-3.1-5.84-3.73-1.17-.64-5.04-2.15-6.75-2.84l9.33-16.73c1.37.49,4.26,1.5,6.34,2.45.92.47,1.8,1,2.64,1.6Z"/>
      <path class="cls-1" d="m91.32,140.04c-.75.18-1.48.39-2.23.6s-1.01.28-1.53.37h-1.7l-.51-.1-1.29-.31c-.7-.2-1.4-.41-2.09-.67l-1.03-.41h-.21l-.54-.23-.98-.41,1.3-19.94c-.59.15-1.2.22-1.81.23h-.44l-.59,9.19-1.89-.47,2.18-8.93c-.7-.07-1.39-.25-2.04-.52l-2.22,8.67-1.89-.47,3.88-8.36c-.65-.3-1.24-.71-1.74-1.22l-9.78,21.28c-.18.37-.33.7-.52,1.09h-2.46l-.72-.1c-.92-.18-1.82-.45-2.69-.8h-.31l-.64-.31c-.42-.21-.85-.44-1.26-.68-.82-.49-1.63-1.06-2.35-1.63-1.59-1.2-3.5-1.91-5.49-2.04-1.92.1-3.81.47-5.62,1.09-.67.15-1.34.29-2.01.41h-.7l-.98.08c-.71.03-1.42,0-2.12-.08h0l-.44-.1h0c2.43-2.88,3.96-6.4,4.42-10.14v-1.89h0v-.86c-.64.05-1.28.05-1.92,0-1.27-.15-2.5-.48-3.67-.99l28.76-15.65-2.43,4.61c-.23.4-.09.91.31,1.13,0,0,0,0,.01,0h0l.37.2c1.01.56,1.38,1.83.83,2.85-.63.98-1.93,1.26-2.91.63-.88-.56-1.21-1.69-.78-2.64l-1.47-.8c-.55,1.01-.6,2.21-.15,3.26l-8.15,1.29-.57-.29c-.39-.22-.89-.09-1.11.3,0,0,0,.02-.01.02h0l-5.62,10.32c-.23.4-.09.91.31,1.13,0,0,0,0,.01,0h0l15.88,8.61c.41.22.92.06,1.14-.34h0l5.62-10.32c.23-.4.09-.91-.31-1.13,0,0,0,0-.01,0h0l-1.29-.7-2.28-6.52c2.08-.06,3.71-1.8,3.65-3.88,0,0,0,0,0,0-.04-1.19-.64-2.3-1.63-2.97l3.51-6.31h0l-.98-3.55-36.98,13.04v-.1l1.35-2.49-.54-.28c-.52-.39-1.07-.77-1.63-1.12-1.64-1.09-3.36-2.03-5.17-2.8l1.43-2.66,1.3-2.38,1.53-2.62-9.15-.59,5.02,4.45-1.63,3.15c-4.66-1.77-9.59-2.71-14.57-2.76h0c-1.03,0-2.05,0-3.06.08l-1.7,2.8h0v6.52c1.83-.13,3.67-.13,5.49,0,7.93.45,15.5,3.44,21.59,8.53.21.2.98.73.98.73,2.32,1.61,5,2.61,7.81,2.92-.19,3.62-1.79,7.02-4.47,9.47-.39-.15-.75-.33-1.22-.55-.97-.49-1.9-1.03-2.8-1.63-3.73-3.03-8-5.33-12.59-6.78-3.63-1.14-7.39-1.83-11.18-2.07-1.2-.08-2.4-.1-3.6-.08v2.17h3.02c.99,0,1.5.1,2.25.16l1.27.15h.39l.68.1c1.92.29,3.82.72,5.69,1.27,1.03.29,2.04.64,3.05,1.03l.75.29.31.13h0l.28.11,1.53.72c1.18.58,2.33,1.22,3.44,1.92,1.14.73,2.23,1.54,3.26,2.41h0l.18.13c2.72,1.93,5.9,3.11,9.23,3.42,1.36.03,2.71-.09,4.04-.36.7-.13,1.4-.29,2.1-.47.96-.24,1.91-.57,2.89-.75,1.7-.28,3.44.08,4.89.99.78.47,1.5,1.03,2.25,1.53.78.54,1.6,1.02,2.45,1.45,1.74.88,3.63,1.43,5.58,1.63,1.65.1,3.31-.1,4.89-.6.33-.09.65-.18.98-.29l2.53-.7.52-.15h.23l1.16-.28h3.36c.55.12,1.1.28,1.63.47h.15l1.08.42.51.21h.47l1.91.8c1.37.55,2.79.97,4.24,1.26,1.2.25,2.45.25,3.65,0,.6-.15,1.21-.34,1.79-.51l1.14-.29.41-.1h1.01c.35.07.7.17,1.04.29.93-.24,1.84-.49,2.74-.77-.96-.89-2.16-1.46-3.46-1.63-.63.03-1.25.18-1.83.42Zm-32.8-23.23l2.23,5.85-9.03-4.89,6.8-.96Zm4.39,8.93l-4.89,8.85-14.4-7.81,4.81-8.84,14.48,7.79Zm-.42-21.8l-10.81,5.89-3.26-.91,14.07-4.97Zm-16.81,6.39l3.26.93-4.35,2.36,1.09-3.29Zm-2.35.37l-1.17,3.7-4.74-1.63,5.92-2.07Zm-18.6,4.37l-.34.13c-5.2-2.75-10.9-4.41-16.76-4.89-1.63-.12-3.26-.15-4.89-.08l2.18-4.08h1.39c7.13-.02,14.12,2.03,20.12,5.89l-1.7,3.03Zm6.52,4.68l-1.16-.68c-1-.86-2.05-1.65-3.16-2.36l.11-.2,5.93-2.1-1.73,5.35Zm3.99-5.46l5.07,1.71-6.83,3.7,1.76-5.41Zm35.87,23.22c-.9.18-1.76.44-2.64.65s-1.45.42-2.18.64l4.65-10.17,2.28.57-2.1,8.31Zm5.89.37c-1.16-.39-2.38-.59-3.6-.6l1.92-7.56,2.27.57-.59,7.6Z"/>
      <path class="cls-1" d="m113.12,86.01v-.2c-.23-.54-.44-1.08-.67-1.63.21-.19.3-.48.23-.75-.07-.35-.34-.62-.68-.7-.11,0-.16,0-.23-.24-.04-.17-.11-.33-.23-.46l-1.39-1.42c-.25-.22-.62-.22-.86,0-.16.11-.25.28-.26.47-.01.2.07.4.21.54l.28.28c.29.31.59.62.9.91,0,.05,0,.1,0,.15-.16.16-.26.38-.28.6,0,.25.11.49.29.65.17.16.39.27.62.31.21.54.44,1.08.65,1.63.05.13.17.23.31.24h1.19l-.08-.39Z"/>
      <path class="cls-1" d="m108.86,91.47c.34.23.7.44,1.08.65,0-.16,0-.33.1-.49.32-1.09.88-2.11,1.63-2.97l.13-.15h.26l4.47.21h.28l.1.15c.63.93,1.07,1.99,1.27,3.1.1.59.1,1.19,0,1.78v.49c.68,0,1.39-.21,2.02-.34v-.26c.05-.67.02-1.34-.1-2.01-.27-1.38-.82-2.68-1.63-3.83-.18-.3-.42-.55-.72-.73-.35-.2-.75-.3-1.16-.29l-4.47-.21c-.76-.11-1.52.21-1.97.83-.86,1.05-1.51,2.27-1.89,3.57l.13.1.47.41Z"/>
    </g>
  </g>
</svg>